HIERARCHY
ROOT Hips
{
	OFFSET 0.000000 0.000000 0.000000
	CHANNELS 6 Xposition Yposition Zposition Zrotation Yrotation Xrotation 
	JOINT LHipJoint
	{
		OFFSET 0.000000 0.000000 0.000000
		CHANNELS 3 Zrotation Yrotation Xrotation
		JOINT LeftUpLeg
		{
			OFFSET 1.363060 -1.794630 0.839290
			CHANNELS 3 Zrotation Yrotation Xrotation
			JOINT LeftLeg
			{
				OFFSET 2.448110 -6.726130 0.000000
				CHANNELS 3 Zrotation Yrotation Xrotation
				JOINT LeftFoot
				{
					OFFSET 2.562200 -7.039590 0.000000
					CHANNELS 3 Zrotation Yrotation Xrotation
					JOINT LeftToeBase
					{
						OFFSET 0.157640 -0.433110 2.322550
						CHANNELS 3 Zrotation Yrotation Xrotation
						End Site
						{
							OFFSET 0.000000 0.000000 0.000000
						}
					}
				}
			}
		}
	}
	JOINT RHipJoint
	{
		OFFSET 0.000000 0.000000 0.000000
		CHANNELS 3 Zrotation Yrotation Xrotation
		JOINT RightUpLeg
		{
			OFFSET -1.305520 -1.794630 0.839290
			CHANNELS 3 Zrotation Yrotation Xrotation
			JOINT RightLeg
			{
				OFFSET -2.542530 -6.985550 0.000000
				CHANNELS 3 Zrotation Yrotation Xrotation
				JOINT RightFoot
				{
					OFFSET -2.568260 -7.056230 0.000000
					CHANNELS 3 Zrotation Yrotation Xrotation
					JOINT RightToeBase
					{
						OFFSET -0.164730 -0.452590 2.363150
						CHANNELS 3 Zrotation Yrotation Xrotation
						End Site
						{
							OFFSET 0.000000 0.000000 0.000000
						}
					}
				}
			}
		}
	}
	JOINT LowerBack
	{
		OFFSET 0.000000 0.000000 0.000000
		CHANNELS 3 Zrotation Yrotation Xrotation
		JOINT Spine
		{
			OFFSET 0.028270 2.035590 -0.193380
			CHANNELS 3 Zrotation Yrotation Xrotation
			JOINT Spine1
			{
				OFFSET 0.056720 2.048850 -0.042750
				CHANNELS 3 Zrotation Yrotation Xrotation
				JOINT Neck
				{
					OFFSET 0.000000 0.000000 0.000000
					CHANNELS 3 Zrotation Yrotation Xrotation
					JOINT Neck1
					{
						OFFSET -0.054170 1.746240 0.172020
						CHANNELS 3 Zrotation Yrotation Xrotation
						JOINT Head
						{
							OFFSET 0.104070 1.761360 -0.123970
							CHANNELS 3 Zrotation Yrotation Xrotation
							End Site
							{
								OFFSET 0.000000 0.000000 0.000000
							}
						}
					}
				}
				JOINT LeftShoulder
				{
					OFFSET 0.000000 0.000000 0.000000
					CHANNELS 3 Zrotation Yrotation Xrotation
					JOINT LeftArm
					{
						OFFSET 3.362410 1.200890 -0.311210
						CHANNELS 3 Zrotation Yrotation Xrotation
						JOINT LeftForeArm
						{
							OFFSET 4.983000 -0.000000 -0.000000
							CHANNELS 3 Zrotation Yrotation Xrotation
							JOINT LeftHand
							{
								OFFSET 3.483560 -0.000000 -0.000000
								CHANNELS 3 Zrotation Yrotation Xrotation
								JOINT LeftFingerBase
								{
									OFFSET 0.000000 0.000000 0.000000
									CHANNELS 3 Zrotation Yrotation Xrotation
									JOINT LeftHandIndex1
									{
										OFFSET 0.715260 -0.000000 -0.000000
										CHANNELS 3 Zrotation Yrotation Xrotation
										End Site
										{
											OFFSET 0.000000 0.000000 0.000000
										}
									}
								}
								JOINT LThumb
								{
									OFFSET 0.000000 0.000000 0.000000
									CHANNELS 3 Zrotation Yrotation Xrotation
									End Site
									{
										OFFSET 0.000000 0.000000 0.000000
									}
								}
							}
						}
					}
				}
				JOINT RightShoulder
				{
					OFFSET 0.000000 0.000000 0.000000
					CHANNELS 3 Zrotation Yrotation Xrotation
					JOINT RightArm
					{
						OFFSET -3.136600 1.374050 -0.404650
						CHANNELS 3 Zrotation Yrotation Xrotation
						JOINT RightForeArm
						{
							OFFSET -5.241900 -0.000000 -0.000000
							CHANNELS 3 Zrotation Yrotation Xrotation
							JOINT RightHand
							{
								OFFSET -3.444170 -0.000000 -0.000000
								CHANNELS 3 Zrotation Yrotation Xrotation
								JOINT RightFingerBase
								{
									OFFSET 0.000000 0.000000 0.000000
									CHANNELS 3 Zrotation Yrotation Xrotation
									JOINT RightHandIndex1
									{
										OFFSET -0.622530 -0.000000 -0.000000
										CHANNELS 3 Zrotation Yrotation Xrotation
										End Site
										{
											OFFSET 0.000000 0.000000 0.000000
										}
									}
								}
								JOINT RThumb
								{
									OFFSET 0.000000 0.000000 0.000000
									CHANNELS 3 Zrotation Yrotation Xrotation
									End Site
									{
										OFFSET 0.000000 0.000000 0.000000
									}
								}
							}
						}
					}
				}
			}
		}
	}
}
MOTION
Frames: 8
Frame Time: 0.008333
53.333520 18.329548 -0.038517 32.021576 -87.696249 -15.650606 -5.540576 -1.226319 -1.757191 -7.817636 -17.586569 -17.673430 -0.616677 7.678377 21.035590 -2.577577 10.115643 0.219109 0.004200 -0.419800 -1.153500 4.455016 1.093687 -1.830183 10.407452 16.031821 -17.677145 -0.390750 -7.841763 21.071597 6.276636 -28.184992 -5.279609 -0.001600 0.261500 -0.718400 -2.189011 -0.337872 -6.286259 2.075900 -0.430750 -13.675533 -0.945280 -0.313732 -2.520945 -8.485623 -1.843436 0.523147 9.247360 -4.372385 5.057190 2.039900 -2.203100 -1.165700 -7.631584 -7.881513 1.668189 -90.046655 0.664434 -25.203649 8.950547 -9.545896 -0.888947 0.198819 0.928916 73.061711 3.857944 23.611486 1.846200 -7.125000 0.000000 0.000000 -24.532000 51.474800 -4.120900 6.137855 6.448901 1.670060 90.009159 -3.551565 13.077751 -10.021666 13.160693 -1.005650 -0.452591 -0.005988 33.608433 -7.198778 7.652161 -0.944400 7.125000 0.000000 0.000000 14.460600 -22.081700 8.222500 
53.329326 18.329769 -0.047567 32.300139 -87.729097 -15.925968 -5.529695 -1.230565 -1.750157 -7.804682 -17.455462 -17.708999 -0.617559 7.682033 21.039832 -2.572635 10.102122 0.185332 0.006400 -0.518500 -1.424800 4.457764 1.096304 -1.831460 10.447112 16.015183 -17.683599 -0.390667 -7.842089 21.075399 6.264490 -28.144701 -5.283424 -0.000700 0.173600 -0.477100 -2.215980 -0.332394 -6.343186 2.074149 -0.417717 -13.617743 -0.933113 -0.305221 -2.462419 -8.449043 -1.728344 0.312866 9.445190 -4.227056 5.332866 2.057900 -2.122100 -1.079400 -7.624031 -7.879034 1.676569 -90.005248 0.554814 -25.328467 8.909699 -9.500328 -0.887271 0.200603 0.932977 73.233767 3.854269 23.731579 1.855700 -7.125000 0.000000 0.000000 -24.597700 51.583400 -4.201300 6.144466 6.445191 1.674161 89.986407 -3.473487 12.701905 -9.958243 13.102627 -1.002535 -0.471711 0.019293 33.867107 -7.290678 8.294560 -1.029100 7.125000 0.000000 0.000000 14.360000 -21.461100 8.371600 
53.322925 18.328666 -0.056506 33.554667 -87.751104 -17.171903 -5.529189 -1.228291 -1.739506 -7.820574 -17.366633 -17.699304 -0.625475 7.670758 21.006160 -2.554200 10.053017 0.164981 0.007000 -0.538400 -1.479500 4.460012 1.094482 -1.837522 10.438927 16.112827 -17.645530 -0.395985 -7.853487 21.112909 6.278268 -28.188839 -5.355851 -0.000900 0.192800 -0.529600 -2.273732 -0.281619 -6.427332 2.009981 -0.351614 -13.549340 -0.939439 -0.269623 -2.402291 -8.436494 -1.621744 -0.066064 9.749110 -4.096834 5.867961 2.091700 -2.037300 -0.913800 -7.610091 -7.871608 1.692086 -89.928711 0.394558 -25.876331 8.820098 -9.414343 -0.888124 0.212362 0.944657 74.031663 3.851377 24.096520 1.887500 -7.125000 0.000000 0.000000 -24.791100 51.912600 -4.446100 6.158768 6.440024 1.682692 90.008518 -3.425992 12.566717 -9.978424 13.145786 -1.009958 -0.475050 0.035470 33.721062 -7.138776 8.644781 -1.043700 7.125000 0.000000 0.000000 14.447500 -21.136000 8.536300 
53.319724 18.328334 -0.064232 34.126853 -87.791655 -17.702381 -5.535246 -1.216996 -1.742839 -7.763401 -17.515709 -17.633780 -0.627816 7.661334 20.976806 -2.616075 10.213337 0.116362 0.006200 -0.507800 -1.395400 4.461313 1.096800 -1.843741 10.461946 16.146775 -17.670812 -0.399454 -7.860171 21.137140 6.262709 -28.135951 -5.363551 -0.001200 0.222100 -0.610200 -2.326975 -0.231102 -6.472872 2.003881 -0.278510 -13.543978 -0.911638 -0.228699 -2.392170 -8.428595 -1.501197 -0.303836 10.014202 -3.958948 6.243581 2.127100 -1.954400 -0.804500 -7.603235 -7.865614 1.699064 -89.944993 0.446514 -25.598235 8.835160 -9.418566 -0.893440 0.211835 0.947694 73.986139 3.862348 24.228211 1.902900 -7.125000 0.000000 0.000000 -24.852900 52.032900 -4.534500 6.170390 6.433631 1.695371 89.972681 -3.453638 12.853997 -10.087129 13.293355 -1.031242 -0.473449 0.039144 33.235675 -6.988528 8.770293 -1.033200 7.125000 0.000000 0.000000 14.545200 -21.025000 8.635800 
53.322263 18.328886 -0.070854 33.760730 -87.788778 -17.263551 -5.541409 -1.210025 -1.760487 -7.679964 -17.754071 -17.610929 -0.627918 7.652470 20.942927 -2.720583 10.488140 0.088973 0.007600 -0.563400 -1.548300 4.460314 1.106762 -1.850181 10.477532 16.123910 -17.778094 -0.402572 -7.865827 21.160182 6.248513 -28.083360 -5.389495 -0.001200 0.226100 -0.621300 -2.355664 -0.240359 -6.466634 2.043619 -0.279852 -13.594711 -0.857779 -0.229439 -2.422379 -8.235706 -1.474132 -0.318183 9.899600 -3.891601 6.304046 2.068700 -1.916400 -0.796600 -7.609896 -7.844323 1.693440 -90.026836 0.579025 -25.048113 8.923948 -9.501442 -0.900268 0.197519 0.943879 73.518045 3.681907 24.156906 1.823900 -7.125000 0.000000 0.000000 -24.989500 51.946100 -4.506900 6.168193 6.450588 1.709626 89.909696 -3.471874 12.861153 -10.131884 13.365052 -1.041354 -0.471502 0.051151 33.282649 -6.808317 8.958574 -1.023400 7.125000 0.000000 0.000000 14.660300 -20.857200 8.766500 
53.325132 18.329328 -0.078469 33.110601 -87.722331 -16.548860 -5.546806 -1.212228 -1.781026 -7.620076 -17.954572 -17.622386 -0.625604 7.647383 20.929180 -2.746082 10.557135 0.147705 0.006100 -0.506000 -1.390400 4.452861 1.118930 -1.852545 10.489371 15.990644 -17.913077 -0.402956 -7.868337 21.168784 6.233718 -28.027065 -5.401030 -0.001500 0.253300 -0.696000 -2.351075 -0.263102 -6.411740 2.025385 -0.314015 -13.674765 -0.853456 -0.251244 -2.492114 -7.982916 -1.468659 -0.208045 9.730610 -3.851359 6.258541 1.994900 -1.896900 -0.830200 -7.613293 -7.829414 1.691077 -90.035389 0.582249 -25.481547 8.916703 -9.509429 -0.901698 0.196965 0.946741 73.981622 3.469463 24.237187 1.746900 -7.125000 0.000000 0.000000 -25.232700 51.991200 -4.584600 6.163792 6.471511 1.717871 89.902007 -3.514072 12.829174 -10.135934 13.371483 -1.040728 -0.467122 0.048209 33.308781 -6.763445 8.847499 -1.004900 7.125000 0.000000 0.000000 14.697400 -20.966200 8.752700 
53.323587 18.329438 -0.088732 32.379964 -87.721880 -15.800864 -5.546243 -1.209660 -1.785946 -7.547525 -18.057164 -17.593642 -0.622738 7.646173 20.928055 -2.755204 10.581356 0.188943 0.005900 -0.497000 -1.365500 4.450531 1.123145 -1.852988 10.569532 15.872418 -17.982141 -0.405461 -7.872412 21.175465 6.213824 -27.976090 -5.281884 -0.001400 0.242000 -0.664800 -2.348623 -0.257444 -6.391973 2.025418 -0.307168 -13.697260 -0.852920 -0.246502 -2.511030 -7.940215 -1.343053 -0.175559 9.932607 -3.719677 6.290618 2.025700 -1.833100 -0.832400 -7.607573 -7.840864 1.695781 -90.000016 0.534447 -25.992258 8.858198 -9.457487 -0.899370 0.198338 0.953001 74.502236 3.299247 24.396211 1.692900 -7.125000 0.000000 0.000000 -25.478500 52.112600 -4.713300 6.169888 6.463176 1.720044 89.864528 -3.556805 13.248897 -10.202632 13.441683 -1.048865 -0.460355 0.026198 32.692879 -6.817254 8.461578 -0.974100 7.125000 0.000000 0.000000 14.681300 -21.330500 8.616700 
53.320386 18.329438 -0.101535 32.508643 -87.821370 -15.947632 -5.538540 -1.198306 -1.777796 -7.478555 -18.057183 -17.548689 -0.620605 7.652042 20.931181 -2.849360 10.825544 0.081225 0.011400 -0.690300 -1.897000 4.460079 1.121155 -1.854973 10.662368 15.914004 -17.956657 -0.408223 -7.874815 21.184839 6.201415 -27.950173 -5.213015 -0.001000 0.206300 -0.566900 -2.404463 -0.237765 -6.421736 2.078929 -0.262811 -13.643711 -0.788371 -0.216765 -2.461750 -7.948049 -1.207296 -0.270053 10.156821 -3.569882 6.412398 2.064800 -1.755400 -0.795500 -7.605105 -7.846345 1.698537 -89.992138 0.503205 -25.979478 8.842916 -9.436193 -0.897213 0.185893 0.954758 74.457197 3.019508 24.436671 1.584200 -7.125000 0.000000 0.000000 -25.766700 52.114200 -4.773800 6.175728 6.454060 1.723853 89.783636 -3.513093 13.393760 -10.212527 13.455419 -1.052161 -0.464504 0.024723 32.474687 -6.887217 8.520597 -0.991200 7.125000 0.000000 0.000000 14.629100 -21.269200 8.605100 
